<?xml version="1.0" encoding="utf-8"?>
<!-- Generator: Adobe Illustrator 15.0.0, SVG Export Plug-In . SVG Version: 6.00 Build 0)  -->
<!DOCTYPE svg PUBLIC "-//W3C//DTD SVG 1.1//EN" "http://www.w3.org/Graphics/SVG/1.1/DTD/svg11.dtd">
<svg version="1.1" id="Layer_1" xmlns="http://www.w3.org/2000/svg" xmlns:xlink="http://www.w3.org/1999/xlink" x="0px" y="0px"
	 width="301.412px" height="80.37px" viewBox="0 0 301.412 80.37" enable-background="new 0 0 301.412 80.37" xml:space="preserve">
<g>
	<path fill="#F7971D" d="M112.528,57.991c-0.219,0.612-0.491,1.269-0.819,1.967c-0.328,0.7-0.536,1.16-0.623,1.378
		c-0.175,0.306-0.449,0.591-0.82,0.853c-0.372,0.262-0.929,0.394-1.672,0.394H97.575v-44.86h3.214c0.393,0,0.721,0.131,0.984,0.394
		c0.262,0.263,0.393,0.591,0.393,0.983v38.893H112.528"/>
	<path fill="#F7971D" d="M132.794,24.149v31.939c0,4.329-2.121,6.493-6.361,6.493h-8.264v-44.86h8.264
		C130.673,17.722,132.794,19.864,132.794,24.149 M128.203,24.937c0-1.05-0.216-1.805-0.648-2.264
		c-0.433-0.459-1.016-0.688-1.749-0.688h-3.046v36.334h3.046c0.733,0,1.316-0.23,1.749-0.689c0.432-0.459,0.648-1.213,0.648-2.262
		V24.937"/>
	<path fill="#F7971D" d="M154.52,27.56c-0.215,0.088-0.679,0.295-1.39,0.623c-0.712,0.328-1.348,0.623-1.907,0.886v-5.116
		c0-0.698-0.241-1.289-0.722-1.771c-0.481-0.48-1.072-0.721-1.771-0.721c-0.656,0-1.225,0.24-1.706,0.721
		c-0.481,0.482-0.721,1.073-0.721,1.771v4.264c0.043,0.524,0.153,1.093,0.328,1.705c0.13,0.523,0.325,1.159,0.585,1.902
		c0.26,0.744,0.629,1.552,1.106,2.426l5.405,10.23c0.348,0.832,0.673,1.641,0.976,2.428c0.262,0.699,0.5,1.465,0.717,2.296
		s0.326,1.617,0.326,2.36v5.641c0,1.574-0.556,2.919-1.666,4.033c-1.109,1.115-2.447,1.673-4.013,1.673h-2.872
		c-1.524-0.089-2.82-0.666-3.886-1.738c-1.065-1.071-1.598-2.371-1.598-3.901v-4.592c0-0.742,0.13-1.301,0.394-1.672
		c0.262-0.371,0.545-0.645,0.853-0.82c0.218-0.088,0.677-0.295,1.377-0.623c0.699-0.328,1.355-0.623,1.968-0.886v7.854
		c0,0.66,0.24,1.223,0.721,1.684c0.481,0.463,1.049,0.693,1.706,0.693c0.699,0,1.279-0.229,1.738-0.689
		c0.458-0.459,0.688-1.041,0.688-1.74v-5.059c-0.043-0.525-0.152-1.095-0.328-1.707c-0.13-0.525-0.317-1.16-0.557-1.906
		c-0.241-0.744-0.601-1.555-1.082-2.431l-5.509-10.313c-0.394-0.832-0.722-1.641-0.984-2.43c-0.262-0.701-0.492-1.467-0.689-2.299
		c-0.196-0.832-0.295-1.621-0.295-2.365v-4.599c0-0.788,0.152-1.532,0.457-2.233c0.304-0.7,0.707-1.324,1.207-1.872
		c0.5-0.547,1.099-0.984,1.795-1.313c0.696-0.328,1.436-0.492,2.22-0.492h2.873c0.739,0,1.447,0.163,2.121,0.49
		c0.675,0.328,1.251,0.766,1.729,1.312s0.871,1.182,1.176,1.902s0.457,1.453,0.457,2.197v1.705c0,0.744-0.13,1.301-0.389,1.672
		C155.102,27.111,154.82,27.386,154.52,27.56"/>
	<path fill="#FFFFFF" d="M179.949,57.204c0,1.531-0.537,2.844-1.607,3.936c-1.072,1.094-2.372,1.682-3.902,1.771h-2.886
		c-1.574,0-2.909-0.558-4.001-1.673c-1.094-1.114-1.639-2.459-1.639-4.033V23.165c0-1.574,0.545-2.918,1.639-4.033
		c1.092-1.115,2.427-1.672,4.001-1.672h2.886c1.53,0.087,2.83,0.678,3.902,1.77c1.07,1.094,1.607,2.406,1.607,3.936v2.887
		c0,0.744-0.132,1.301-0.395,1.672c-0.262,0.371-0.547,0.646-0.852,0.819c-0.219,0.089-0.689,0.295-1.41,0.623
		c-0.723,0.328-1.368,0.623-1.936,0.886v-6.165c0-0.655-0.24-1.224-0.722-1.706c-0.481-0.48-1.049-0.721-1.704-0.721
		c-0.701,0-1.279,0.24-1.738,0.721c-0.459,0.482-0.689,1.051-0.689,1.706v32.597c0,0.655,0.23,1.225,0.689,1.705
		s1.037,0.721,1.738,0.721c0.655,0,1.223-0.24,1.704-0.721s0.722-1.05,0.722-1.705V43.169h-0.196c-0.22,0-0.417-0.066-0.591-0.197
		c-0.175-0.086-0.35-0.229-0.525-0.426c-0.174-0.197-0.35-0.469-0.523-0.82l-1.574-3.148h5.771c0.656,0,1.19,0.188,1.607,0.559
		c0.414,0.371,0.623,0.995,0.623,1.869V57.204"/>
	<path fill="#FFFFFF" d="M205.724,62.582h-5.05l-4.002-30.956l-4.065,30.956h-5.05l6.821-44.86h2.426
		c1.005,0,1.649,0.252,1.935,0.754c0.285,0.504,0.47,1.061,0.558,1.672L205.724,62.582"/>
	<path fill="#FFFFFF" d="M233.926,17.722v44.86h-4.592V39.431l-3.477,15.347h-1.377c-0.656,0-1.203-0.142-1.64-0.426
		c-0.438-0.284-0.776-0.623-1.017-1.017c-0.24-0.395-0.416-0.787-0.524-1.181c-0.109-0.394-0.187-0.722-0.229-0.983l-2.689-11.74
		v23.151h-4.59v-44.86h2.82c0.348,0,0.655,0.065,0.918,0.196c0.218,0.089,0.436,0.252,0.655,0.492
		c0.218,0.241,0.371,0.558,0.458,0.951l5.313,25.774l5.05-25.774c0.043-0.132,0.186-0.437,0.427-0.918
		c0.239-0.481,0.776-0.722,1.606-0.722H233.926"/>
	<path fill="#FFFFFF" d="M247.632,57.991h9.642c0.305,0,0.414,0.164,0.328,0.492c-0.088,0.328-0.253,0.699-0.492,1.114
		c-0.241,0.417-0.504,0.798-0.787,1.147c-0.285,0.352-0.471,0.548-0.558,0.591c-0.132,0.306-0.384,0.591-0.755,0.853
		s-0.929,0.394-1.672,0.394h-10.297V19.033c0-0.394,0.142-0.71,0.426-0.95s0.602-0.361,0.951-0.361h12.002
		c0.307,0,0.416,0.164,0.328,0.491c-0.088,0.328-0.252,0.688-0.492,1.083c-0.24,0.394-0.502,0.766-0.786,1.115
		c-0.285,0.35-0.471,0.547-0.558,0.59c-0.131,0.307-0.383,0.602-0.754,0.885c-0.372,0.285-0.931,0.428-1.674,0.428h-3.737
		c-0.307,0-0.569,0.099-0.788,0.296c-0.219,0.198-0.327,0.45-0.327,0.758v13.439h6.952c0.306,0,0.426,0.162,0.36,0.485
		s-0.22,0.689-0.458,1.1c-0.242,0.409-0.515,0.787-0.82,1.131c-0.307,0.346-0.503,0.539-0.591,0.582
		c-0.13,0.346-0.383,0.647-0.753,0.906c-0.373,0.258-0.931,0.387-1.674,0.387l-1.901-0.065c-0.307,0-0.569,0.11-0.788,0.328
		c-0.219,0.22-0.327,0.481-0.327,0.788V57.991"/>
	<path fill="#FFFFFF" d="M279.048,62.582h-4.591V46.186c0-1.136-0.24-1.901-0.722-2.296c-0.481-0.393-1.05-0.59-1.705-0.59h-2.427
		v19.282h-4.591v-44.86h8.356c0.782,0,1.521,0.143,2.22,0.427c0.695,0.284,1.294,0.677,1.794,1.18s0.902,1.094,1.208,1.771
		c0.305,0.679,0.457,1.41,0.457,2.198V37.2c0,0.875-0.097,1.574-0.291,2.1c-0.194,0.523-0.399,0.918-0.615,1.18
		c-0.258,0.307-0.538,0.525-0.84,0.656c0.302,0.176,0.582,0.459,0.84,0.853c0.216,0.351,0.421,0.798,0.615,1.345
		s0.291,1.235,0.291,2.066V62.582 M273.735,38.479c0.481-0.371,0.722-1.061,0.722-2.065V24.608c0-0.874-0.24-1.477-0.722-1.804
		c-0.481-0.328-1.05-0.491-1.705-0.491h-2.427v16.723h2.427C272.686,39.036,273.254,38.852,273.735,38.479"/>
	<path fill="#FFFFFF" d="M300.184,27.56c-0.215,0.088-0.679,0.295-1.39,0.623s-1.347,0.623-1.907,0.886v-5.116
		c0-0.698-0.24-1.289-0.721-1.771c-0.482-0.48-1.072-0.721-1.771-0.721c-0.656,0-1.225,0.24-1.705,0.721
		c-0.482,0.482-0.722,1.073-0.722,1.771v4.264c0.043,0.524,0.153,1.093,0.327,1.705c0.131,0.523,0.326,1.159,0.587,1.902
		c0.26,0.744,0.63,1.552,1.106,2.426l5.405,10.23c0.347,0.832,0.673,1.641,0.977,2.428c0.261,0.699,0.499,1.465,0.716,2.296
		c0.218,0.831,0.326,1.617,0.326,2.36v5.641c0,1.574-0.555,2.919-1.665,4.033c-1.11,1.115-2.448,1.673-4.015,1.673h-2.872
		c-1.524-0.089-2.818-0.666-3.885-1.738c-1.065-1.071-1.599-2.371-1.599-3.901v-4.592c0-0.742,0.131-1.301,0.393-1.672
		c0.263-0.371,0.547-0.645,0.854-0.82c0.219-0.088,0.678-0.295,1.377-0.623s1.355-0.623,1.968-0.886v7.854
		c0,0.66,0.239,1.223,0.722,1.684c0.48,0.463,1.049,0.693,1.705,0.693c0.699,0,1.279-0.229,1.738-0.689
		c0.459-0.459,0.688-1.041,0.688-1.74v-5.059c-0.044-0.525-0.154-1.095-0.328-1.707c-0.131-0.525-0.317-1.16-0.558-1.906
		c-0.24-0.744-0.602-1.555-1.082-2.431l-5.51-10.313c-0.393-0.832-0.721-1.641-0.983-2.43c-0.262-0.701-0.491-1.467-0.688-2.299
		s-0.295-1.621-0.295-2.365v-4.599c0-0.788,0.151-1.532,0.457-2.233c0.305-0.7,0.707-1.324,1.207-1.872
		c0.5-0.547,1.099-0.984,1.796-1.313c0.696-0.328,1.436-0.492,2.22-0.492h2.871c0.741,0,1.447,0.163,2.123,0.49
		c0.674,0.328,1.25,0.766,1.729,1.312s0.87,1.182,1.176,1.902c0.305,0.721,0.457,1.453,0.457,2.197v1.705
		c0,0.744-0.131,1.301-0.389,1.672C300.766,27.111,300.484,27.386,300.184,27.56"/>
	<path fill="#F89A22" d="M108.593,62.582h-5.329l1.346-4.591h7.918c-0.219,0.612-0.491,1.269-0.819,1.967
		c-0.328,0.7-0.536,1.16-0.623,1.379c-0.175,0.305-0.449,0.59-0.82,0.852C109.894,62.45,109.336,62.582,108.593,62.582"/>
	<path fill="#F89A22" d="M126.433,62.582h-8.264v-9.834l4.59,2.487v3.084h3.046c0.661,0,1.199-0.187,1.616-0.56l4.414,2.392
		C130.829,61.771,129.027,62.582,126.433,62.582"/>
	<path fill="#FFFFFF" d="M269.604,62.582h-4.591v-5.091l4.591-2.487V62.582z M279.048,62.582h-4.591V52.375l4.591-2.487V62.582"/>
	<path fill="#F89A22" d="M102.165,22.192l-4.59-0.982v-3.488h3.214c0.393,0,0.721,0.131,0.984,0.394
		c0.262,0.263,0.393,0.591,0.393,0.983V22.192"/>
	<path fill="#F89A22" d="M132.794,28.911l-0.477-0.258l-4.115-0.882v-2.835c0-1.05-0.216-1.805-0.648-2.263
		c-0.433-0.46-1.016-0.688-1.75-0.688h-3.046v4.62l-4.59-0.983v-7.9h8.264c4.24,0,6.362,2.143,6.362,6.428V28.911"/>
	<path fill="#F89A22" d="M150.6,38.557l-7.078-3.834c-0.324-0.712-0.6-1.409-0.826-2.089c-0.262-0.701-0.492-1.467-0.688-2.299
		c-0.197-0.832-0.295-1.621-0.295-2.365v-4.599c0-0.788,0.152-1.532,0.457-2.233c0.305-0.7,0.707-1.324,1.207-1.872
		c0.5-0.547,1.099-0.984,1.796-1.313c0.696-0.328,1.436-0.492,2.22-0.492h2.873c0.739,0,1.447,0.163,2.121,0.49
		c0.675,0.328,1.251,0.766,1.729,1.312s0.871,1.182,1.176,1.902s0.457,1.453,0.457,2.197v1.705c0,0.744-0.13,1.301-0.389,1.672
		c-0.258,0.372-0.539,0.646-0.84,0.82c-0.215,0.088-0.679,0.295-1.39,0.623c-0.712,0.328-1.348,0.623-1.907,0.886v-5.116
		c0-0.698-0.241-1.289-0.722-1.771c-0.481-0.48-1.072-0.721-1.771-0.721c-0.656,0-1.225,0.24-1.706,0.721
		c-0.481,0.482-0.721,1.073-0.721,1.771v4.264c0.043,0.524,0.153,1.093,0.328,1.705c0.13,0.523,0.325,1.159,0.585,1.902
		c0.26,0.744,0.629,1.552,1.106,2.426L150.6,38.557"/>
	<path fill="#FFFFFF" d="M170.504,40.562h-4.59V23.165c0-1.574,0.545-2.919,1.64-4.033c1.091-1.115,2.426-1.672,4-1.672h2.886
		c1.53,0.087,2.83,0.678,3.902,1.77c1.07,1.094,1.607,2.406,1.607,3.936v2.887c0,0.744-0.132,1.301-0.395,1.672
		c-0.262,0.371-0.547,0.646-0.852,0.819c-0.22,0.089-0.689,0.295-1.411,0.623s-1.367,0.623-1.935,0.886v-6.165
		c0-0.655-0.241-1.224-0.722-1.705c-0.481-0.481-1.049-0.722-1.704-0.722c-0.701,0-1.279,0.24-1.738,0.722s-0.689,1.05-0.689,1.705
		V40.562 M179.93,40.562h-6.99l-0.992-1.984h5.771c0.656,0,1.19,0.187,1.607,0.558C179.667,39.44,179.868,39.917,179.93,40.562"/>
	<path fill="#FFFFFF" d="M202.389,40.562h-4.561l-1.156-8.937l-1.173,8.937h-4.595l3.474-22.841h2.426
		c1.005,0,1.65,0.252,1.935,0.754c0.284,0.504,0.471,1.061,0.558,1.672L202.389,40.562"/>
	<path fill="#FFFFFF" d="M223.014,40.562h-4.373l-0.26-1.132v1.132h-4.59V17.722h2.82c0.348,0,0.655,0.066,0.918,0.197
		c0.218,0.088,0.436,0.252,0.655,0.491c0.218,0.241,0.371,0.558,0.458,0.951L223.014,40.562 M233.926,40.562h-4.592v-1.132
		l-0.256,1.132h-4.226l4.153-21.201c0.043-0.132,0.186-0.437,0.427-0.918c0.239-0.481,0.776-0.722,1.606-0.722h2.887V40.562"/>
	<path fill="#FFFFFF" d="M243.041,37.633v-18.6c0-0.394,0.141-0.71,0.426-0.95c0.284-0.24,0.602-0.361,0.951-0.361h12.002
		c0.306,0,0.415,0.164,0.328,0.492c-0.088,0.327-0.252,0.688-0.492,1.082c-0.24,0.394-0.502,0.766-0.786,1.115
		c-0.285,0.35-0.471,0.547-0.558,0.59c-0.131,0.307-0.383,0.602-0.754,0.885c-0.372,0.285-0.93,0.427-1.673,0.427h-3.738
		c-0.307,0-0.569,0.101-0.788,0.297c-0.219,0.198-0.327,0.45-0.327,0.758v11.779L243.041,37.633"/>
	<path fill="#FFFFFF" d="M265.013,27.497v-9.775h8.356c0.782,0,1.521,0.143,2.219,0.426c0.696,0.285,1.295,0.678,1.795,1.181
		s0.902,1.094,1.208,1.771c0.305,0.68,0.457,1.41,0.457,2.198v1.194l-4.591,0.982v-0.865c0-0.874-0.24-1.477-0.723-1.805
		c-0.48-0.327-1.048-0.49-1.704-0.49h-2.427v4.201L265.013,27.497"/>
	<path fill="#FFFFFF" d="M287.415,22.698c0.062-0.542,0.202-1.062,0.419-1.561c0.305-0.7,0.707-1.324,1.207-1.872
		c0.5-0.547,1.099-0.984,1.796-1.313c0.696-0.328,1.436-0.492,2.22-0.492h2.871c0.74,0,1.447,0.163,2.122,0.49
		c0.675,0.328,1.251,0.766,1.729,1.312c0.186,0.212,0.357,0.438,0.518,0.676L287.415,22.698"/>
</g>
<g>
	<path fill="#F7971D" d="M74.005,6.187c0.682-0.682-0.095-2.564-1.734-4.205c-1.64-1.64-3.522-2.416-4.205-1.734
		c-0.682,0.683,0.094,2.564,1.734,4.205C71.441,6.092,73.323,6.868,74.005,6.187"/>
	
		<rect x="64.321" y="1.775" transform="matrix(0.7071 0.7071 -0.7071 0.7071 24.52 -45.8035)" fill="#F7971D" width="6.467" height="9.848"/>
	<polygon fill="#F7971D" points="67.909,18.327 62.337,11.915 55.926,6.345 52.194,6.081 56.294,4.505 64.965,9.287 69.748,17.959 
		68.171,22.059 	"/>
	<polygon fill="#FFFFFF" points="1.837,72.415 2.829,61.696 59.604,8.709 62.338,11.915 65.543,14.647 12.556,71.424 	"/>
	<polygon fill="#F7971D" points="1.837,72.415 2.939,72.518 3.892,62.218 59.513,10.308 61.553,12.7 63.945,14.739 12.034,70.36 
		1.735,71.313 1.837,72.415 2.939,72.518 1.837,72.415 1.939,73.518 13.078,72.487 67.143,14.557 63.123,11.13 59.696,7.11 
		1.766,61.175 0.612,73.64 1.939,73.518 	"/>
	<polygon fill="#F7971D" points="62.404,12.647 61.605,11.849 7.8,66.033 8.22,66.452 	"/>
	<path fill="#F7971D" d="M0.248,6.187c-0.683-0.682,0.094-2.564,1.734-4.205c1.64-1.64,3.522-2.416,4.204-1.734
		C6.869,0.93,6.092,2.812,4.453,4.452C2.812,6.092,0.93,6.868,0.248,6.187"/>
	
		<rect x="3.466" y="1.775" transform="matrix(-0.7071 0.7071 -0.7071 -0.7071 16.173 6.6984)" fill="#F7971D" width="6.466" height="9.848"/>
	<polygon fill="#F7971D" points="6.344,18.327 11.916,11.915 18.327,6.345 22.059,6.081 17.959,4.505 9.288,9.287 4.505,17.959 
		6.082,22.059 	"/>
	<polygon fill="#FFFFFF" points="72.416,72.415 71.424,61.696 14.648,8.709 11.916,11.915 8.709,14.647 61.697,71.424 	"/>
	<polygon fill="#F7971D" points="72.416,72.415 73.518,72.313 72.487,61.175 14.557,7.11 11.13,11.13 7.111,14.557 61.176,72.487 
		73.641,73.64 73.518,72.313 72.416,72.415 72.518,71.313 62.219,70.36 10.308,14.739 12.701,12.7 14.74,10.308 70.361,62.218 
		71.314,72.518 72.416,72.415 72.518,71.313 	"/>
	<polygon fill="#F7971D" points="11.849,12.647 12.647,11.849 66.453,66.033 66.034,66.452 	"/>
	<path fill="#F7971D" d="M38.724,12.672c-0.015-0.009-0.042-0.025-0.076-0.048c-0.936-0.584-2.115-0.615-3.08-0.08
		s-1.563,1.553-1.562,2.656l0,0.108l3.033-0.003l-1.604-2.574c-3.541,2.207-7.255,4.641-11.931,6.695
		c-2.337,1.028-4.915,1.963-7.834,2.725c-2.92,0.761-6.183,1.348-9.889,1.669c-0.841,0.073-1.608,0.489-2.128,1.154
		s-0.738,1.511-0.606,2.345c1.293,8.129,3.859,15.4,6.993,21.736c4.704,9.508,10.678,16.922,15.638,22.094
		c4.962,5.17,8.916,8.1,9.629,8.616l0.005,0.003l0.042,0.031c1.056,0.76,2.488,0.76,3.544,0l0.042-0.031l0.005-0.003
		c0.476-0.345,2.392-1.761,5.086-4.2c4.041-3.657,9.839-9.61,15.138-17.705c2.648-4.047,5.171-8.631,7.275-13.73
		s3.791-10.715,4.76-16.811c0.132-0.834-0.086-1.68-0.606-2.345s-1.287-1.081-2.128-1.154c-3.706-0.321-6.969-0.908-9.889-1.669
		c-4.379-1.143-7.99-2.673-11.173-4.327c-3.184-1.653-5.936-3.438-8.592-5.093c-1.422-0.887-3.293-0.451-4.179,0.971
		s-0.451,3.293,0.971,4.179c3.449,2.146,7.491,4.812,12.696,7.101c2.603,1.145,5.496,2.193,8.747,3.041s6.86,1.493,10.896,1.842
		l0.262-3.021l-2.996-0.477c-1.186,7.451-3.539,14.135-6.439,20c-4.349,8.797-9.938,15.748-14.577,20.582
		c-4.638,4.834-8.319,7.55-8.805,7.9l0.005-0.004l-0.042,0.03l1.771,2.462l1.772-2.462l-0.042-0.03l0.005,0.004
		c-0.324-0.234-2.068-1.519-4.569-3.781c-3.752-3.395-9.202-8.993-14.132-16.529c-2.466-3.768-4.803-8.02-6.744-12.723
		c-1.941-4.705-3.487-9.859-4.376-15.449l-2.996,0.477l0.261,3.021c4.036-0.349,7.644-0.994,10.896-1.842
		c4.877-1.27,8.948-2.998,12.441-4.814s6.415-3.717,9.001-5.327c0.887-0.552,1.431-1.533,1.43-2.577l0-0.109l-3.034,0.002
		l-1.608,2.572c0.022,0.015,0.056,0.035,0.098,0.062c1.425,0.881,3.294,0.441,4.177-0.982
		C40.588,15.424,40.148,13.554,38.724,12.672"/>
	<path fill="#FFFFFF" d="M37.925,13.962c-0.021-0.014-0.05-0.031-0.082-0.051c-0.468-0.293-1.058-0.309-1.54-0.041
		s-0.781,0.776-0.781,1.328v0.109l1.517-0.002l-0.802-1.287c-3.518,2.192-7.314,4.684-12.122,6.797
		c-4.807,2.113-10.626,3.858-18.203,4.516c-0.421,0.037-0.805,0.244-1.064,0.578c-0.26,0.332-0.369,0.754-0.303,1.172
		C5.811,35.04,8.324,42.165,11.4,48.384c4.615,9.33,10.493,16.628,15.373,21.715c4.88,5.086,8.767,7.963,9.423,8.438l0.002,0.002
		l0.042,0.031c0.528,0.379,1.244,0.379,1.771,0l0.042-0.031l0.003-0.002c0.875-0.633,7.493-5.534,14.552-14.255
		c3.529-4.36,7.167-9.678,10.244-15.897c3.076-6.219,5.588-13.344,6.854-21.303c0.066-0.418-0.043-0.84-0.303-1.172
		c-0.26-0.334-0.644-0.541-1.064-0.578c-7.577-0.657-13.396-2.402-18.203-4.516s-8.604-4.604-12.122-6.797
		c-0.711-0.443-1.646-0.226-2.089,0.485c-0.443,0.712-0.226,1.646,0.486,2.09c3.472,2.161,7.432,4.769,12.504,6.999
		c5.073,2.232,11.257,4.078,19.163,4.761l0.131-1.511l-1.498-0.238c-1.212,7.621-3.619,14.451-6.578,20.435
		c-4.437,8.975-10.122,16.041-14.842,20.96c-4.719,4.918-8.469,7.687-9.011,8.078l0.002-0.002l-0.042,0.031l0.886,1.23l0.886-1.23
		l-0.043-0.031l0.002,0.002c-0.724-0.521-7.147-5.271-13.97-13.704c-3.412-4.216-6.924-9.351-9.883-15.334
		S8.753,34.226,7.541,26.604l-1.498,0.238l0.13,1.511c7.906-0.683,14.09-2.528,19.163-4.761c5.072-2.23,9.033-4.838,12.505-6.999
		c0.443-0.276,0.715-0.767,0.715-1.289v-0.109l-1.517,0.001l-0.804,1.287c0.025,0.016,0.057,0.035,0.093,0.058
		c0.712,0.44,1.647,0.222,2.088-0.491C38.857,15.338,38.637,14.403,37.925,13.962"/>
	<path fill="#F89A22" d="M73.305,6.434c-0.229,0-0.489-0.049-0.771-0.143l0.788-0.788L68.75,0.931l-0.788,0.788
		c-0.213-0.641-0.195-1.172,0.105-1.472C68.234,0.079,68.475,0,68.767,0c0.894,0,2.268,0.745,3.504,1.981
		c1.64,1.641,2.417,3.523,1.734,4.205C73.837,6.354,73.597,6.434,73.305,6.434"/>
	<polygon fill="#F89A22" points="66.591,12.233 64.965,9.287 62.019,7.661 67.961,1.719 68.75,0.931 73.322,5.503 72.534,6.292 	"/>
	<polygon fill="#F89A22" points="68.171,22.059 67.909,18.327 65.843,15.949 67.143,14.557 63.123,11.13 59.696,7.11 58.303,8.409 
		55.926,6.345 52.194,6.081 56.293,4.505 62.019,7.662 64.966,9.287 66.591,12.233 69.748,17.959 	"/>
	<path fill="#FFFFFF" d="M53.114,20.399c-1.062-0.406-2.074-0.834-3.045-1.277l9.445-8.814l1.673,1.963L53.114,20.399
		 M57.344,21.812c-1.097-0.314-2.145-0.653-3.149-1.012l7.788-7.733l1.962,1.673L57.344,21.812 M3.062,71.19l0.83-8.973l8.807-8.219
		c0.884,1.52,1.793,2.975,2.717,4.365L7.8,66.033l0.419,0.419l7.575-7.521c0.992,1.469,1.998,2.863,3.003,4.184l-6.764,7.246
		L3.062,71.19"/>
	<path fill="#F89A22" d="M59.778,22.448c-0.405-0.096-0.803-0.195-1.195-0.297c-0.42-0.109-0.833-0.223-1.239-0.34l6.601-7.072
		l-1.962-1.673l0.422-0.419l-0.799-0.799l-0.419,0.422l-1.673-1.963l-9.445,8.814c-0.736-0.335-1.447-0.68-2.139-1.031l10.374-9.682
		l1.393-1.299l3.427,4.02l4.02,3.427l-1.3,1.393L59.778,22.448 M1.837,72.415l1.102,0.103L1.837,72.415 M0.612,73.64l1.153-12.465
		l9.814-9.158c0.368,0.672,0.741,1.334,1.119,1.982l-8.807,8.219l-0.83,8.973l8.972-0.83l6.764-7.246
		c0.46,0.604,0.921,1.192,1.38,1.766l-7.101,7.607l-11.138,1.03L0.612,73.64"/>
	<path fill="#F89A22" d="M54.194,20.8c-0.366-0.131-0.726-0.264-1.081-0.4l8.073-8.129l0.419-0.422l0.799,0.799l-0.422,0.419
		L54.194,20.8 M8.22,66.452L7.8,66.033l7.615-7.669c0.126,0.189,0.253,0.379,0.379,0.566L8.22,66.452"/>
	<path fill="#F89A22" d="M0.948,6.434c-0.292,0-0.532-0.079-0.7-0.247c-0.683-0.682,0.094-2.564,1.734-4.205
		C3.218,0.745,4.592,0,5.486,0c0.292,0,0.532,0.079,0.701,0.247c0.299,0.3,0.317,0.831,0.104,1.472L5.503,0.931L0.931,5.503
		l0.788,0.789C1.438,6.385,1.177,6.434,0.948,6.434"/>
	<polygon fill="#F89A22" points="7.662,12.234 1.719,6.292 0.931,5.503 5.503,0.931 6.292,1.719 12.235,7.661 9.288,9.287 	"/>
	<polygon fill="#F89A22" points="6.082,22.059 4.505,17.959 7.662,12.234 9.288,9.287 12.235,7.662 17.959,4.505 22.059,6.081 
		18.327,6.345 15.95,8.409 14.557,7.11 11.13,11.13 7.111,14.557 8.41,15.949 6.344,18.327 	"/>
	<path fill="#FFFFFF" d="M21.139,20.399l-8.072-8.129l1.673-1.963l9.445,8.815c-0.224,0.103-0.451,0.204-0.68,0.304
		C22.743,19.763,21.956,20.087,21.139,20.399 M16.909,21.812l-6.601-7.072l1.963-1.673l7.788,7.733
		C19.055,21.159,18.006,21.497,16.909,21.812 M71.191,71.19l-8.973-0.83l-6.764-7.247c1.005-1.319,2.011-2.714,3.003-4.183
		l7.575,7.521l0.419-0.419l-7.615-7.669c0.111-0.166,0.222-0.335,0.333-0.504c0.809-1.236,1.607-2.523,2.385-3.861l8.806,8.219
		L71.191,71.19"/>
	<path fill="#F89A22" d="M14.476,22.448L8.41,15.949l-1.299-1.393l4.02-3.427l3.427-4.02l1.393,1.299l10.374,9.683
		c-0.691,0.351-1.403,0.695-2.139,1.031l-9.445-8.815l-1.673,1.963l-0.419-0.422l-0.799,0.799l0.422,0.419l-1.962,1.673l6.601,7.072
		c-0.406,0.117-0.819,0.23-1.239,0.34C15.278,22.253,14.88,22.353,14.476,22.448 M72.416,72.415L72.416,72.415 M73.641,73.64
		l-12.465-1.152l-7.101-7.607c0.459-0.573,0.919-1.162,1.38-1.767l6.764,7.247l8.973,0.83l-0.83-8.973l-8.806-8.219
		c0.378-0.648,0.75-1.311,1.118-1.982l9.814,9.158l1.031,11.139l-1.102,0.102l0.102-1.102l-0.102,1.102l1.102-0.102L73.641,73.64"/>
	<path fill="#F89A22" d="M20.059,20.8l-7.788-7.733l-0.422-0.419l0.799-0.799l0.419,0.422l8.072,8.129
		C20.785,20.536,20.424,20.669,20.059,20.8 M66.034,66.452l-7.575-7.521c0.126-0.188,0.252-0.376,0.379-0.566l7.615,7.669
		L66.034,66.452"/>
	<path fill="#F89A22" d="M35.842,14.265c-3.408,2.132-7.099,4.517-11.727,6.551c-4.807,2.113-10.626,3.858-18.203,4.516
		c-0.421,0.037-0.805,0.244-1.064,0.578c-0.26,0.332-0.369,0.754-0.303,1.172C5.811,35.04,8.324,42.165,11.4,48.384
		c4.615,9.33,10.493,16.628,15.373,21.715c4.88,5.086,8.767,7.963,9.423,8.438l0.002,0.002l0.042,0.031
		c0.264,0.189,0.575,0.284,0.886,0.284s0.622-0.095,0.886-0.284l0.042-0.031l0.003-0.002c0.875-0.633,7.493-5.534,14.552-14.255
		c3.529-4.36,7.167-9.678,10.244-15.897c3.076-6.219,5.588-13.344,6.854-21.303c0.066-0.418-0.043-0.84-0.303-1.172
		c-0.26-0.334-0.644-0.541-1.064-0.578c-7.577-0.657-13.396-2.402-18.203-4.516s-8.604-4.604-12.122-6.797
		c-0.014-0.009-0.028-0.018-0.042-0.025c-0.016-0.011-0.032-0.021-0.048-0.031c-0.021-0.014-0.05-0.031-0.082-0.051
		c-0.246-0.154-0.525-0.23-0.804-0.23c-0.253,0-0.506,0.062-0.736,0.189C36.122,13.972,35.966,14.106,35.842,14.265 M37.126,80.37
		c-0.622,0-1.244-0.19-1.772-0.57l-0.042-0.031l-0.005-0.003c-0.713-0.517-4.667-3.446-9.629-8.616
		c-1.741-1.816-3.608-3.908-5.5-6.27c-0.459-0.573-0.919-1.162-1.38-1.766c-1.005-1.32-2.012-2.715-3.003-4.184
		c-0.126-0.188-0.253-0.377-0.379-0.566c-0.923-1.391-1.833-2.846-2.717-4.365c-0.378-0.649-0.751-1.311-1.119-1.983
		c-0.525-0.962-1.04-1.949-1.54-2.96c-3.134-6.336-5.7-13.607-6.993-21.736c-0.132-0.834,0.086-1.68,0.606-2.345
		s1.287-1.081,2.129-1.154c3.208-0.278,6.084-0.755,8.693-1.372c0.405-0.096,0.803-0.195,1.195-0.297
		c0.42-0.109,0.833-0.223,1.239-0.34c1.097-0.314,2.146-0.653,3.149-1.012c0.366-0.131,0.726-0.264,1.081-0.4
		c0.816-0.312,1.604-0.637,2.366-0.972c0.229-0.101,0.456-0.202,0.68-0.306c0.736-0.335,1.448-0.68,2.139-1.031
		c3.168-1.607,5.905-3.353,8.525-4.993c0.207-0.216,0.448-0.403,0.718-0.554c0.458-0.254,0.965-0.381,1.472-0.381
		c0.559,0,1.117,0.154,1.608,0.461c0.035,0.022,0.062,0.039,0.076,0.049c0.019,0.012,0.038,0.023,0.057,0.035
		c0.012,0.008,0.025,0.016,0.038,0.023c2.656,1.655,5.408,3.439,8.592,5.093c0.172,0.089,0.345,0.179,0.52,0.267
		c0.691,0.352,1.403,0.696,2.139,1.031c0.971,0.443,1.984,0.871,3.045,1.277c0.354,0.137,0.715,0.27,1.081,0.4
		c1.004,0.358,2.052,0.697,3.149,1.012c0.406,0.117,0.819,0.23,1.239,0.34c0.392,0.102,0.79,0.201,1.195,0.297
		c2.609,0.617,5.485,1.094,8.694,1.372c0.841,0.073,1.608,0.489,2.128,1.154s0.739,1.511,0.606,2.345
		c-0.97,6.096-2.656,11.711-4.76,16.811c-1.148,2.783-2.422,5.413-3.772,7.887c-0.368,0.672-0.74,1.334-1.118,1.982
		c-0.778,1.337-1.576,2.625-2.385,3.861c-0.111,0.169-0.222,0.338-0.333,0.504c-0.126,0.19-0.252,0.379-0.379,0.566
		c-0.992,1.469-1.998,2.863-3.003,4.184c-0.46,0.604-0.921,1.193-1.38,1.766c-3.688,4.604-7.277,8.182-10.043,10.686
		c-2.695,2.439-4.61,3.855-5.086,4.2l-0.005,0.003L38.898,79.8C38.37,80.18,37.749,80.37,37.126,80.37"/>
	<path fill="#F89A22" d="M37.126,73.503c-0.755-0.613-1.72-1.428-2.834-2.436c-3.752-3.395-9.202-8.993-14.132-16.529
		c-2.466-3.768-4.803-8.02-6.744-12.723c-1.573-3.812-2.886-7.92-3.801-12.314c2.73-0.365,5.25-0.869,7.585-1.479
		c4.877-1.27,8.948-2.998,12.441-4.814c2.828-1.471,5.281-2.996,7.485-4.378c3.112,1.95,6.718,4.188,11.179,6.151
		c2.603,1.145,5.496,2.193,8.747,3.041c2.335,0.609,4.855,1.113,7.586,1.479c-1.292,6.203-3.376,11.834-5.864,16.865
		c-4.349,8.797-9.938,15.748-14.577,20.582C41.273,69.996,38.729,72.202,37.126,73.503"/>
	<path fill="#F89A22" d="M9.615,29.501c0.915,4.395,2.228,8.502,3.801,12.314c1.941,4.703,4.278,8.955,6.744,12.723
		c4.93,7.536,10.38,13.135,14.132,16.529c1.115,1.008,2.079,1.822,2.834,2.436c1.603-1.301,4.147-3.507,7.071-6.555
		c4.64-4.834,10.228-11.785,14.577-20.582c2.488-5.031,4.573-10.662,5.864-16.865c-2.729-0.365-5.25-0.869-7.585-1.479
		c-3.251-0.848-6.145-1.896-8.747-3.041c-4.461-1.963-8.067-4.201-11.179-6.151c-2.204,1.382-4.657,2.907-7.485,4.378
		c-3.494,1.816-7.564,3.545-12.441,4.814C14.865,28.632,12.345,29.136,9.615,29.501 M37.126,75.44
		c-2.088-1.619-7.47-6.078-13.125-13.067c-3.412-4.216-6.924-9.351-9.883-15.334c-2.752-5.565-5.026-11.862-6.306-18.846
		c7.129-0.783,12.807-2.524,17.523-4.601c4.728-2.079,8.489-4.485,11.79-6.553c3.301,2.067,7.062,4.474,11.79,6.553
		c4.717,2.076,10.395,3.817,17.523,4.601c-1.28,6.983-3.554,13.28-6.306,18.846c-4.438,8.975-10.123,16.041-14.842,20.96
		C41.65,71.794,38.585,74.31,37.126,75.44"/>
	<path fill="#FFFFFF" d="M7.813,28.192c1.28,6.984,3.554,13.281,6.306,18.847c2.958,5.983,6.471,11.118,9.883,15.334
		c5.655,6.989,11.036,11.448,13.125,13.067c1.458-1.131,4.523-3.646,8.166-7.442c4.72-4.918,10.404-11.984,14.842-20.959
		c2.752-5.565,5.026-11.862,6.306-18.847c-7.129-0.782-12.807-2.523-17.523-4.6c-4.728-2.08-8.489-4.485-11.79-6.553
		c-3.301,2.067-7.062,4.473-11.79,6.553C20.62,25.669,14.942,27.41,7.813,28.192 M37.972,76.077L37.972,76.077 M37.126,78.854
		c-0.311,0-0.622-0.095-0.886-0.284l-0.042-0.031l-0.002-0.002c-0.657-0.475-4.543-3.352-9.423-8.438
		c-4.88-5.087-10.758-12.385-15.373-21.715C8.324,42.165,5.811,35.04,4.545,27.081c-0.066-0.418,0.042-0.84,0.303-1.172
		c0.26-0.334,0.644-0.541,1.064-0.578c7.577-0.657,13.396-2.402,18.203-4.516c4.628-2.034,8.319-4.419,11.727-6.551
		c0.124-0.158,0.279-0.293,0.461-0.395c0.229-0.127,0.483-0.19,0.736-0.19c0.279,0,0.559,0.077,0.804,0.231
		c0.032,0.02,0.06,0.037,0.082,0.051c0.017,0.01,0.032,0.021,0.048,0.031c0.014,0.008,0.028,0.017,0.042,0.025
		c3.518,2.192,7.314,4.684,12.122,6.797s10.626,3.858,18.203,4.516c0.42,0.037,0.804,0.244,1.064,0.578
		c0.26,0.332,0.369,0.754,0.303,1.172c-1.266,7.959-3.779,15.084-6.854,21.303c-3.076,6.221-6.715,11.537-10.244,15.897
		c-7.059,8.721-13.677,13.622-14.552,14.255l-0.003,0.002l-0.042,0.031C37.749,78.759,37.438,78.854,37.126,78.854"/>
	<path fill="#FFFFFF" d="M33.66,27.265c-0.002-0.324,0-0.646,0.002-0.971c-0.732-1.055-1.519-2.072-2.24-3.135
		c0.69,0.089,1.376,0.191,2.063,0.311c0.345,0.418,0.69,0.836,1.04,1.25c0.466-0.203,0.931-0.407,1.389-0.63
		c-0.002-0.263-0.002-0.524-0.002-0.79c0.279,0.004,0.563,0.006,0.845,0.008c-0.164-0.365-0.357-0.721-0.465-1.106
		c0.233-0.513,0.541-0.986,0.812-1.479c0.307,0.488,0.594,0.991,0.878,1.492c-0.168,0.361-0.336,0.723-0.503,1.082
		c0.283,0.006,0.567,0.012,0.854,0.019c0.004,0.271,0.007,0.54,0.013,0.811c0.457,0.197,0.915,0.396,1.374,0.593
		c0.343-0.422,0.691-0.84,1.048-1.252c0.685-0.119,1.372-0.225,2.062-0.291c-0.756,1.035-1.508,2.076-2.261,3.114
		c-0.002,0.323-0.002,0.647,0,0.972c-1.155-0.441-2.303-0.902-3.455-1.35C35.962,26.363,34.814,26.823,33.66,27.265"/>
	<path fill="#FFFFFF" d="M43.42,47.492c1.097-0.495,2.229-0.926,3.283-1.501c1.152-0.627,2.18-1.427,2.975-2.522
		c1.131-1.56,1.134-3.228,0.381-4.844c-0.485-1.044-0.612-1.833-0.149-2.976c1.499-3.697-0.056-6.577-3.266-8.527
		c-0.801-0.486-1.652-0.889-2.451-1.467c1.287,0.318,2.617,0.52,3.85,0.982c1.65,0.621,3.234,1.424,4.822,2.2
		c0.3,0.146,0.607,0.491,0.702,0.808c0.68,2.287,0.758,4.537-0.6,6.65c-0.056,0.087-0.051,0.212-0.105,0.459
		c1.985-1.638,2.83-3.658,2.874-6.242c0.371,0.352,0.642,0.584,0.885,0.842c1.179,1.25,1.925,2.732,2.319,4.396
		c0.042,0.177,0.057,0.397-0.011,0.557c-0.554,1.284-1.271,2.469-2.378,3.353c-1.178,0.94-2.389,1.839-3.568,2.741
		c2.685-0.559,4.826-2.109,6.788-4.172c0.128,2.459-0.085,4.658-1.895,6.398c-0.84,0.809-1.916,1.101-2.979,1.343
		c-1.792,0.407-3.612,0.687-5.42,1.025c-0.22,0.042-0.433,0.124-0.649,0.282c0.84,0,1.682,0.036,2.52-0.011
		c0.829-0.046,1.656-0.165,2.48-0.274c0.834-0.111,1.664-0.252,2.521-0.318c-3.547,3.128-7.843,4.666-12.333,5.793
		c1.428-1.022,3.103-1.701,4.247-3.088c-0.042-0.086-0.083-0.17-0.125-0.254c-1.587,0.566-3.185,1.106-4.757,1.711
		c-0.836,0.322-1.619,0.781-2.444,1.135c-0.45,0.192-0.497,0.484-0.396,0.895c0.494,2.004,1.007,4.004,1.444,6.021
		c0.068,0.315-0.224,0.708-0.351,1.064c-0.246,0.688-0.492,1.378-0.801,2.242c-0.449-1.667-0.85-3.155-1.251-4.644
		c-0.048-0.006-0.096-0.014-0.144-0.02c-0.021,0.455-0.082,0.912-0.053,1.363c0.067,1.063,0.176,2.124,0.27,3.186
		c0.044,0.508,0.079,1.018,0.143,1.522c0.21,1.661-0.756,3.009-1.203,4.491c-0.322,1.069-0.796,2.092-1.206,3.134
		c-0.033,0.083-0.099,0.151-0.198,0.298c-0.228-0.507-0.452-0.949-0.629-1.409c-0.625-1.625-1.286-3.239-1.824-4.894
		c-0.201-0.617-0.152-1.334-0.124-2.002c0.039-0.9,0.179-1.795,0.254-2.694c0.064-0.765,0.111-1.53,0.137-2.298
		c0.008-0.236-0.075-0.478-0.146-0.89c-0.45,1.679-0.851,3.169-1.29,4.807c-0.24-0.593-0.423-1.051-0.612-1.507
		c-0.148-0.355-0.346-0.697-0.443-1.066c-0.076-0.288-0.097-0.623-0.032-0.912c0.442-1.945,0.913-3.887,1.378-5.828
		c0.086-0.357,0.007-0.59-0.36-0.771c-2.146-1.062-4.286-2.131-6.623-2.725c-0.215-0.055-0.441-0.07-0.704-0.027
		c1.033,1.463,2.577,2.242,4.115,3.108c-3.512-0.495-9.685-2.938-12.368-5.782c2.589,0.307,5.104,0.604,7.62,0.902
		c0.015-0.087,0.03-0.174,0.045-0.26c-0.863-0.189-1.73-0.359-2.588-0.57c-1.871-0.461-3.779-0.821-5.591-1.453
		c-1.413-0.492-2.114-1.852-2.493-3.208c-0.319-1.14-0.306-2.372-0.458-3.726c1.209,0.924,2.188,1.797,3.286,2.475
		c1.077,0.666,2.275,1.133,3.461,1.562c-1.251-0.957-2.527-1.885-3.747-2.881c-0.984-0.803-1.558-1.926-2.088-3.055
		c-0.083-0.178-0.117-0.427-0.065-0.612c0.549-1.974,1.448-3.742,3.069-5.069c0.071-0.059,0.146-0.111,0.227-0.172
		c-0.161,1.207,0.052,2.348,0.541,3.41c0.49,1.064,1.31,1.885,2.341,2.545c-0.19-0.521-0.357-1.051-0.575-1.559
		c-0.673-1.57-0.723-3.162-0.294-4.807c0.191-0.733,0.605-1.242,1.234-1.586c2.42-1.324,5.032-2.111,7.71-2.703
		c0.066-0.014,0.139,0.008,0.276,0.017c-0.926,0.573-1.821,1.09-2.678,1.663c-2.21,1.48-3.414,3.52-3.105,6.221
		c0.109,0.955,0.539,1.886,0.904,2.795c0.167,0.418,0.176,0.707-0.091,1.068c-1.118,1.51-1.289,3.179-0.694,4.926
		c0.389,1.143,1.261,1.929,2.199,2.615c1.36,0.994,2.889,1.668,4.522,2.135c-0.66-0.376-1.331-0.734-1.978-1.131
		c-1.29-0.789-2.464-1.717-3.286-3.013c-0.511-0.806-0.915-1.659-0.754-2.661c0.034-0.213,0.095-0.422,0.157-0.689
		c0.445,0.632,0.762,1.271,1.248,1.73c0.982,0.931,1.966,1.918,3.116,2.599c1.385,0.82,2.847,1.505,4.104,2.536
		c0.188,0.153,0.424,0.248,0.723,0.419c0.226-1.026,0.429-1.953,0.667-3.034c-0.369,0-0.721,0-1.277,0
		c0.389-0.377,0.687-0.663,1.156-1.116c-0.753,0.134-1.357,0.24-1.962,0.347c0.019-0.688,0.565-0.994,1.412-1.221
		c-0.967-0.399-1.563-0.013-2.152,0.414c-0.042-0.041-0.084-0.083-0.126-0.125c0.275-0.333,0.486-0.83,0.837-0.969
		c1.358-0.535,2.758-0.967,4.152-1.404c0.164-0.052,0.413,0.061,0.584,0.162c0.971,0.569,1.895,1.231,2.904,1.72
		c0.887,0.43,1.102,1.036,0.889,1.84c-0.787-0.08-1.584-0.161-2.406-0.244c0.206,1.888,0.379,2.368,1.375,3.774
		c0.603-0.443,1.19-0.906,1.809-1.324c0.815-0.549,1.627-1.112,2.488-1.58c1.764-0.959,3.241-2.219,4.354-3.893
		c0.122-0.184,0.18-0.408,0.337-0.779c0.243,1.083,0.071,1.938-0.297,2.789c-0.551,1.275-1.489,2.213-2.595,2.984
		c-0.974,0.68-2.002,1.281-3.007,1.918C43.38,47.401,43.4,47.446,43.42,47.492z"/>
</g>
</svg>
